<?xml version="1.0" standalone="no"?>
<!DOCTYPE svg PUBLIC "-//W3C//DTD SVG 20010904//EN"
 "http://www.w3.org/TR/2001/REC-SVG-20010904/DTD/svg10.dtd">
<svg version="1.0" xmlns="http://www.w3.org/2000/svg"
 width="720.000000pt" height="720.000000pt" viewBox="0 0 720.000000 720.000000"
 preserveAspectRatio="xMidYMid meet">

<g transform="translate(0.000000,720.000000) scale(0.100000,-0.100000)"
fill="#000000" stroke="none">
<path d="M5375 5749 c-269 -23 -471 -117 -759 -356 -65 -54 -124 -102 -131
-107 -9 -7 -27 1 -56 25 -24 18 -46 36 -49 39 -21 25 -162 110 -253 155 -525
256 -1263 229 -1761 -62 -339 -199 -586 -495 -747 -895 -147 -364 -158 -825
-29 -1193 133 -377 378 -688 710 -900 87 -56 278 -150 341 -168 l44 -13 6
-189 c5 -157 9 -200 26 -246 71 -191 234 -279 462 -248 115 16 191 64 252 157
l28 44 20 -39 c22 -44 83 -103 132 -129 98 -50 350 -50 449 1 47 24 90 66 111
107 l20 39 29 -39 c48 -67 116 -110 205 -131 263 -61 465 52 525 294 15 63 15
2052 0 2215 -13 129 -33 250 -60 355 -12 44 -24 89 -26 101 -5 20 0 22 100 33
112 13 174 30 274 79 196 95 394 313 481 528 40 99 54 166 53 259 0 156 -77
259 -207 280 -75 11 -100 12 -190 4z m240 -109 c98 -61 103 -246 11 -445 -128
-277 -385 -481 -647 -514 -41 -5 -344 -9 -674 -10 l-600 -2 146 73 c227 114
382 224 762 543 85 72 188 154 229 182 171 119 364 190 548 202 114 7 179 -1
225 -29z m-2095 -51 c203 -19 394 -71 575 -159 110 -53 259 -151 294 -194 13
-16 11 -20 -15 -42 -72 -60 -266 -205 -334 -249 -112 -74 -340 -186 -473 -233
l-118 -42 -840 0 c-461 0 -839 3 -839 8 0 4 18 40 41 81 229 420 609 698 1094
800 178 38 408 49 615 30z m1276 -1074 c35 -112 63 -260 73 -390 14 -170 23
-2092 11 -2178 -12 -81 -56 -174 -102 -212 -64 -55 -113 -69 -228 -69 -93 0
-111 3 -160 27 -31 14 -70 41 -88 60 -33 34 -72 127 -72 172 0 39 -18 65 -44
65 -26 0 -36 -17 -36 -60 0 -45 -38 -157 -65 -188 -14 -16 -48 -40 -77 -53
-46 -21 -68 -23 -178 -23 -116 -1 -129 1 -176 26 -28 15 -65 42 -81 62 -33 37
-73 131 -73 172 0 36 -17 64 -39 64 -26 0 -40 -20 -50 -76 -21 -111 -76 -189
-161 -228 -63 -29 -236 -30 -295 -2 -93 45 -139 97 -170 197 -15 46 -18 110
-20 444 -2 226 -8 419 -14 459 -22 134 -69 182 -185 193 -70 6 -96 -4 -96 -38
0 -25 30 -39 82 -39 109 -1 127 -46 135 -342 l6 -208 -48 17 c-69 23 -258 121
-340 175 -163 109 -344 292 -456 461 -155 237 -243 494 -270 791 -21 234 27
531 121 751 l19 45 1528 -2 1527 -3 22 -70z"/>
<path d="M3392 4158 c-83 -28 -177 -159 -202 -282 -15 -73 -15 -214 -1 -278
26 -114 103 -228 182 -268 84 -43 196 -17 265 63 81 93 119 221 112 377 -6
120 -28 192 -88 280 -65 97 -172 140 -268 108z"/>
<path d="M4352 4157 c-47 -15 -123 -86 -155 -145 -36 -67 -67 -190 -67 -269 0
-184 92 -370 206 -418 225 -94 431 221 358 548 -21 96 -67 178 -127 232 -68
62 -135 78 -215 52z"/>
<path d="M3984 2954 c-54 -84 -149 -270 -169 -332 -45 -138 44 -144 154 -10
30 37 58 68 61 68 3 0 17 -22 32 -48 37 -66 106 -142 129 -142 23 0 49 48 49
90 0 43 -35 143 -77 220 -31 56 -110 177 -134 204 -4 4 -24 -18 -45 -50z"/>
</g>
</svg>
